<?xml version="1.0" encoding="utf-8"?>
<!-- Generator: Adobe Illustrator 25.4.1, SVG Export Plug-In . SVG Version: 6.00 Build 0)  -->
<svg version="1.1" xmlns="http://www.w3.org/2000/svg" xmlns:xlink="http://www.w3.org/1999/xlink" x="0px" y="0px"
	 viewBox="0 0 1920 1080" style="enable-background:new 0 0 1920 1080;" xml:space="preserve">
<style type="text/css">
	.st0{fill:#FBB03B;}
</style>
<g id="Background">
</g>
<g id="Hexagon">
	<g>
		<polygon class="st0" points="568.18,542.07 739.44,237.69 1085.72,235.52 1260.78,537.72 1089.52,842.1 743.24,844.28 		"/>
		<path d="M1084.57,237.52l173.91,300.21l-170.13,302.37l-343.96,2.16L570.48,542.05l170.13-302.37L1084.57,237.52 M1086.87,233.51
			l-348.6,2.19L565.88,542.08l176.22,304.2l348.6-2.19l172.39-306.39L1086.87,233.51L1086.87,233.51z"/>
	</g>
	<g>
		<g>
			<path d="M914.26,323c47.5,0,92.04,6.2,125.43,17.45c29.79,10.04,47.57,23.33,47.57,35.56s-17.78,25.52-47.57,35.56
				c-33.38,11.25-77.93,17.45-125.43,17.45c-47.5,0-92.04-6.2-125.43-17.45c-29.79-10.04-47.57-23.33-47.57-35.56
				s17.78-25.52,47.57-35.56C822.21,329.2,866.76,323,914.26,323 M914.26,315c-99.96,0-181,27.31-181,61.01s81.03,61.01,181,61.01
				s181-27.31,181-61.01S1014.22,315,914.26,315L914.26,315z"/>
		</g>
		<g>
			<path d="M913.7,374.52c58.27,0,112.94,8.14,153.93,22.91c19.16,6.91,34.72,15.18,45,23.94c9.69,8.25,14.6,16.66,14.6,24.98
				s-4.91,16.73-14.6,24.98c-10.28,8.75-25.84,17.03-45,23.94c-40.99,14.77-95.66,22.91-153.93,22.91s-112.94-8.14-153.93-22.91
				c-19.16-6.91-34.72-15.18-45-23.94c-9.69-8.25-14.6-16.66-14.6-24.98s4.91-16.73,14.6-24.98c10.28-8.75,25.84-17.03,45-23.94
				C800.77,382.66,855.43,374.52,913.7,374.52 M913.7,366.52c-122.35,0-221.53,35.74-221.53,79.83s99.18,79.83,221.53,79.83
				s221.53-35.74,221.53-79.83S1036.05,366.52,913.7,366.52L913.7,366.52z"/>
		</g>
		<g>
			<path d="M914.5,431.33c68.87,0,133.51,10.47,181.99,29.48c45.45,17.82,71.51,41.53,71.51,65.06c0,23.53-26.07,47.24-71.51,65.06
				c-48.48,19.01-113.11,29.48-181.99,29.48s-133.51-10.47-181.99-29.48C687.07,573.11,661,549.39,661,525.87
				c0-23.53,26.07-47.24,71.51-65.06C780.99,441.8,845.63,431.33,914.5,431.33 M914.5,423.33c-144.42,0-261.5,45.91-261.5,102.54
				s117.08,102.54,261.5,102.54S1176,582.5,1176,525.87S1058.92,423.33,914.5,423.33L914.5,423.33z"/>
		</g>
		<g>
			<path d="M911.75,557.12c57.97,0,112.35,8.13,153.13,22.9c37.67,13.64,59.28,31.48,59.28,48.92s-21.61,35.28-59.28,48.92
				c-40.78,14.77-95.16,22.9-153.13,22.9s-112.35-8.13-153.13-22.9c-37.67-13.64-59.28-31.48-59.28-48.92s21.61-35.28,59.28-48.92
				C799.39,565.26,853.78,557.12,911.75,557.12 M911.75,549.12c-121.73,0-220.42,35.74-220.42,79.83s98.68,79.83,220.42,79.83
				c121.73,0,220.42-35.74,220.42-79.83S1033.48,549.12,911.75,549.12L911.75,549.12z"/>
		</g>
		<g>
			<path d="M911.48,655.99c48.25,0,93.51,6.2,127.43,17.46c30.27,10.05,48.35,23.34,48.35,35.54s-18.07,25.5-48.35,35.54
				C1004.99,755.8,959.74,762,911.48,762s-93.51-6.2-127.43-17.46c-30.27-10.05-48.35-23.34-48.35-35.54s18.07-25.5,48.35-35.54
				C817.97,662.19,863.23,655.99,911.48,655.99 M911.48,647.99c-101.49,0-183.77,27.31-183.77,61.01
				c0,33.69,82.28,61.01,183.77,61.01s183.77-27.31,183.77-61.01C1095.25,675.3,1012.98,647.99,911.48,647.99L911.48,647.99z"/>
		</g>
	</g>
</g>
</svg>
