<?xml version="1.0" encoding="UTF-8" standalone="no"?>
<!DOCTYPE svg PUBLIC "-//W3C//DTD SVG 1.1//EN" "http://www.w3.org/Graphics/SVG/1.1/DTD/svg11.dtd">
<svg version="1.1" xmlns="http://www.w3.org/2000/svg" xmlns:xlink="http://www.w3.org/1999/xlink" preserveAspectRatio="xMidYMid meet" viewBox="0 0 640 640" width="640" height="640"><defs><path d="M554.44 318.63C554.44 453.69 444.78 563.35 309.72 563.35C174.65 563.35 65 453.69 65 318.63C65 183.57 174.65 73.91 309.72 73.91C444.78 73.91 554.44 183.57 554.44 318.63Z" id="b11vOg8YZj"></path><path d="M401.57 545.52C401.57 532.04 401.57 505.08 401.57 464.64L554.44 320L401.57 320L226.09 320L65 318.63L226.09 464.64L226.09 545.52" id="b4cVTPF0jO"></path><path d="M401.57 320C401.57 368.43 362.26 407.74 313.83 407.74C265.4 407.74 226.09 368.43 226.09 320C226.09 271.57 265.4 232.26 313.83 232.26C362.26 232.26 401.57 271.57 401.57 320Z" id="a3tr5Mwpi"></path></defs><g><g><g><use xlink:href="#b11vOg8YZj" opacity="1" fill="#ffffff" fill-opacity="1"></use><g><use xlink:href="#b11vOg8YZj" opacity="1" fill-opacity="0" stroke="#090909" stroke-width="3" stroke-opacity="1"></use></g></g><g><g><use xlink:href="#b4cVTPF0jO" opacity="1" fill-opacity="0" stroke="#1c270f" stroke-width="3" stroke-opacity="1"></use></g></g><g><use xlink:href="#a3tr5Mwpi" opacity="1" fill="#ffffff" fill-opacity="1"></use><g><use xlink:href="#a3tr5Mwpi" opacity="1" fill-opacity="0" stroke="#000000" stroke-width="3" stroke-opacity="1"></use></g></g></g></g></svg>